<svg width="50" height="50" viewBox="0 0 50 50" xmlns="http://www.w3.org/2000/svg">
  <g id="layer1">
    <g id="text1" aria-label="{sf}">
      <path fill="#000000" d="m 6.6498519,19.496672 q 0,2.442102 -0.7911035,3.783538 -0.7911034,1.307041 -2.4421019,1.719791 1.6509985,0.412749 2.4421019,1.754185 0.7911035,1.307041 0.7911035,3.749143 v 4.127496 q 0,2.029352 0.6535202,2.820456 0.6535202,0.791103 2.2013313,0.791103 h 0.9974786 v 2.682873 H 9.7110782 q -3.0956221,0 -4.6090374,-1.307041 -1.5134153,-1.30704 -1.5134153,-4.677829 v -4.161892 q 0,-1.685394 -0.3783538,-2.579685 -0.343958,-0.894291 -1.1350614,-1.238249 -0.7567077,-0.378354 -2.13253974,-0.378354 v -3.164413 q 1.41022784,0 2.16693554,-0.378354 0.7911034,-0.378354 1.1350614,-1.272645 0.343958,-0.894291 0.343958,-2.545289 v -4.161892 q 0,-3.370789 1.5134153,-4.677829 Q 6.6154561,9.0747444 9.7110782,9.0747444 H 10.502182 V 11.757617 H 9.5047034 q -1.5478111,0 -2.2013313,0.791103 -0.6535202,0.791104 -0.6535202,2.820456 z" id="path2" />
      <path fill="#008000" d="m 25.945879,32.016744 q 0,1.616603 -0.859895,2.854852 -0.8255,1.238248 -2.338915,1.926164 -1.513415,0.687917 -3.473976,0.687917 -2.614081,0 -4.50585,-1.169458 -1.891769,-1.169457 -2.476498,-3.198809 l 2.235727,-1.272645 q 1.272645,2.992435 4.746621,2.992435 1.685394,0 2.648477,-0.687916 0.963082,-0.687916 0.963082,-1.891769 0,-0.928687 -0.584728,-1.513416 -0.550333,-0.584728 -1.410228,-0.89429 -0.825499,-0.343958 -2.338915,-0.791104 -1.822977,-0.515937 -2.958039,-0.997478 -1.135061,-0.481541 -1.926165,-1.410228 -0.791103,-0.963082 -0.791103,-2.510893 0,-1.616603 0.859895,-2.820456 0.894291,-1.203853 2.37331,-1.822978 1.513416,-0.65352 3.301997,-0.65352 2.338915,0 4.024309,1.031874 1.685394,1.031874 2.270123,2.820456 l -2.235727,1.272645 q -0.550333,-1.169458 -1.650999,-1.788582 -1.066269,-0.65352 -2.545289,-0.65352 -1.513415,0 -2.442102,0.619124 -0.894291,0.584729 -0.894291,1.71979 0,0.825499 0.515937,1.341436 0.550333,0.515937 1.341437,0.8255 0.791103,0.309562 2.235727,0.722311 1.891769,0.515937 3.061226,1.031874 1.169457,0.481542 1.994957,1.513416 0.859895,1.031874 0.859895,2.717268 z M 36.539784,13.305428 q -1.444624,0 -2.201331,0.928687 -0.722312,0.928686 -0.722312,3.267601 v 1.71979 h 4.643433 v 2.510893 H 33.616141 V 37.107323 H 30.692498 V 21.732399 h -3.095622 v -2.510893 h 3.095622 v -1.788582 q 0,-3.577163 1.616602,-5.228162 1.616603,-1.650998 4.093101,-1.650998 1.100665,0 1.994956,0.309562 0.928687,0.275167 1.47902,0.722312 l -1.169457,2.338914 q -0.963083,-0.619124 -2.166936,-0.619124 z" id="path3" />
      <path fill="#000000" d="m 43.350147,15.369176 q 0,-2.029352 -0.653521,-2.820456 -0.65352,-0.791103 -2.201331,-0.791103 H 39.497817 V 9.0747444 h 0.791103 q 3.095622,0 4.609038,1.3070406 1.513415,1.30704 1.513415,4.677829 v 4.161892 q 0,1.650998 0.343958,2.545289 0.343958,0.894291 1.100666,1.272645 0.791103,0.378354 2.201331,0.378354 v 3.164413 q -1.375832,0 -2.166936,0.378354 -0.756707,0.343958 -1.135061,1.238249 -0.343958,0.894291 -0.343958,2.579685 v 4.161892 q 0,3.370789 -1.513415,4.677829 -1.513416,1.307041 -4.609038,1.307041 h -0.791103 v -2.682873 h 0.997478 q 1.547811,0 2.201331,-0.791103 0.653521,-0.791104 0.653521,-2.820456 v -4.127496 q 0,-2.442102 0.791103,-3.749143 0.791103,-1.341436 2.442102,-1.754185 -1.650999,-0.41275 -2.442102,-1.719791 -0.791103,-1.341436 -0.791103,-3.783538 z" id="path4" />
    </g>
  </g>
</svg>
