<?xml version="1.0" encoding="UTF-8"?>
<svg version="1.1" xmlns="http://www.w3.org/2000/svg" width="1000" height="400">
<path d="M0 0 C11.22 0 22.44 0 34 0 C34 18.15 34 36.3 34 55 C54.13 55 74.26 55 95 55 C95 36.85 95 18.7 95 0 C106.22 0 117.44 0 129 0 C129 48.18 129 96.36 129 146 C117.78 146 106.56 146 95 146 C95 125.87 95 105.74 95 85 C74.87 85 54.74 85 34 85 C34 105.13 34 125.26 34 146 C22.78 146 11.56 146 0 146 C0 97.82 0 49.64 0 0 Z " fill="#000000" transform="translate(148,118)"/>
<path d="M0 0 C84.27481156 0 84.27481156 0 101.7734375 16.58203125 C110.34749446 25.89315626 113.58400415 36.91061156 113.4375 49.375 C113.42920166 50.2925708 113.42090332 51.2101416 113.41235352 52.15551758 C113.07669767 65.67133943 108.20518232 76.27538641 98.4375 85.6875 C83.98512289 97.48934462 67.63093667 99.49293937 49.6875 99.1875 C41.9221875 99.0946875 41.9221875 99.0946875 34 99 C34 114.51 34 130.02 34 146 C22.78 146 11.56 146 0 146 C0 97.82 0 49.64 0 0 Z M34 29 C34 42.53 34 56.06 34 70 C54.07887953 70.80657495 54.07887953 70.80657495 72 63 C76.49524955 57.73726882 76.61333411 52.84533957 76.38671875 46.03125 C75.72298038 40.8286139 73.38100532 38.34264406 69.75 34.8125 C58.83902886 27.62117811 46.75904288 29 34 29 Z " fill="#000000" transform="translate(553,118)"/>
<path d="M0 0 C4.228125 0.061875 8.45625 0.12375 12.8125 0.1875 C12.8125 10.0875 12.8125 19.9875 12.8125 30.1875 C5.5625 31.375 5.5625 31.375 3.29980469 31.71166992 C-0.13879776 32.3391825 -2.03860758 33.04777761 -4.59765625 35.44921875 C-8.52995862 42.22205404 -8.20943463 50.7171695 -8.52294922 58.38085938 C-9.00149101 70.07651227 -9.67813438 78.51099641 -18.11328125 87.3359375 C-20.69776299 89.64298899 -22.95704658 90.97607997 -26.1875 92.1875 C-25.61 92.61804688 -25.0325 93.04859375 -24.4375 93.4921875 C-16.30386153 99.62065815 -11.35319187 104.99748793 -9.1875 115.1875 C-9.00812584 117.3592963 -8.8697684 119.53462408 -8.7578125 121.7109375 C-8.68433594 122.979375 -8.61085937 124.2478125 -8.53515625 125.5546875 C-8.38456197 128.218446 -8.24651975 130.88210501 -8.11328125 133.546875 C-8.03722656 134.81789062 -7.96117187 136.08890625 -7.8828125 137.3984375 C-7.82109863 138.55649902 -7.75938477 139.71456055 -7.69580078 140.90771484 C-7.12297882 144.60381968 -6.2037754 147.03814794 -4.1875 150.1875 C1.59253936 154.07091807 1.59253936 154.07091807 12.8125 155.1875 C12.8125 165.0875 12.8125 174.9875 12.8125 185.1875 C-22.67980388 185.88685574 -22.67980388 185.88685574 -32.765625 177.6484375 C-41.4664621 168.70856642 -42.57798908 156.71785148 -42.75 144.8125 C-42.4471612 129.77158453 -42.4471612 129.77158453 -47.3125 116.0625 C-53.20422591 112.22007006 -58.15550884 111.19207017 -65.1875 110.1875 C-65.1875 98.6375 -65.1875 87.0875 -65.1875 75.1875 C-60.5675 74.1975 -55.9475 73.2075 -51.1875 72.1875 C-42.50318675 63.50318675 -43.18828511 55.88220927 -42.94824219 44.07763672 C-42.33097259 17.08649471 -42.33097259 17.08649471 -33.1875 8.1875 C-23.61596155 0.23307078 -11.92179125 -0.248661 0 0 Z " fill="#000000" transform="translate(121.1875,100.8125)"/>
<path d="M0 0 C34.66415673 -0.68303757 34.66415673 -0.68303757 44.5625 7.375 C53.98742026 16.76031976 55.3770782 27.54144443 55.5625 40.375 C55.2596612 55.41591547 55.2596612 55.41591547 60.125 69.125 C66.01672591 72.96742994 70.96800884 73.99542983 78 75 C78 86.55 78 98.1 78 110 C73.38 110.99 68.76 111.98 64 113 C55.60894202 121.39105798 55.9891372 129.69264391 55.76123047 141.02172852 C55.16819902 166.98747314 55.16819902 166.98747314 45.7734375 176.421875 C36.16835468 184.96912931 25.17816562 185.44541919 12.8125 185.1875 C8.584375 185.125625 4.35625 185.06375 0 185 C0 175.1 0 165.2 0 155 C7.25 153.8125 7.25 153.8125 9.51269531 153.47583008 C12.95129776 152.8483175 14.85110758 152.13972239 17.41015625 149.73828125 C21.3403019 142.96916062 21.01767543 134.51415567 21.28491211 126.85717773 C21.70002771 115.41956175 22.99025621 106.22949237 31.18359375 97.59375 C33.57413568 95.49624224 36.04582514 94.15284873 39 93 C38.4225 92.56945312 37.845 92.13890625 37.25 91.6953125 C29.11636153 85.56684185 24.16569187 80.19001207 22 70 C21.82062584 67.8282037 21.6822684 65.65287592 21.5703125 63.4765625 C21.49683594 62.208125 21.42335938 60.9396875 21.34765625 59.6328125 C21.19706197 56.969054 21.05901975 54.30539499 20.92578125 51.640625 C20.84972656 50.36960938 20.77367187 49.09859375 20.6953125 47.7890625 C20.63359863 46.63100098 20.57188477 45.47293945 20.50830078 44.27978516 C19.93547882 40.58368032 19.0162754 38.14935206 17 35 C11.21996064 31.11658193 11.21996064 31.11658193 0 30 C0 20.1 0 10.2 0 0 Z " fill="#000000" transform="translate(861,101)"/>
<path d="M0 0 C40.26 0 80.52 0 122 0 C122 9.9 122 19.8 122 30 C107.48 30 92.96 30 78 30 C78 68.28 78 106.56 78 146 C66.78 146 55.56 146 44 146 C44 107.72 44 69.44 44 30 C29.48 30 14.96 30 0 30 C0 20.1 0 10.2 0 0 Z " fill="#000000" transform="translate(418,118)"/>
<path d="M0 0 C40.26 0 80.52 0 122 0 C122 9.9 122 19.8 122 30 C107.48 30 92.96 30 78 30 C78 68.28 78 106.56 78 146 C66.78 146 55.56 146 44 146 C44 107.72 44 69.44 44 30 C29.48 30 14.96 30 0 30 C0 20.1 0 10.2 0 0 Z " fill="#000000" transform="translate(290,118)"/>
<path d="M0 0 C1.09674401 0.90057841 2.18589345 1.81108246 3.25 2.75 C1.96663984 6.08209776 0.54046548 9.24104583 -1.1328125 12.39453125 C-1.57753906 13.23564453 -2.02226563 14.07675781 -2.48046875 14.94335938 C-2.94066406 15.80767578 -3.40085937 16.67199219 -3.875 17.5625 C-4.57689453 18.88797852 -4.57689453 18.88797852 -5.29296875 20.24023438 C-6.44307603 22.41135525 -7.59548146 24.5812226 -8.75 26.75 C-11.15037457 25.816521 -13.46973707 24.90594828 -15.72265625 23.65234375 C-19.83676317 21.82120946 -24.36472234 22.11888437 -28.75 22.75 C-33.0376796 25.72512462 -34.61217338 28.72459908 -35.75 33.75 C-36.245 38.7 -36.245 38.7 -36.75 43.75 C-28.17 43.75 -19.59 43.75 -10.75 43.75 C-10.75 52.99 -10.75 62.23 -10.75 71.75 C-19.66 71.75 -28.57 71.75 -37.75 71.75 C-37.75 96.83 -37.75 121.91 -37.75 147.75 C-48.64 147.75 -59.53 147.75 -70.75 147.75 C-70.75 122.67 -70.75 97.59 -70.75 71.75 C-76.36 71.75 -81.97 71.75 -87.75 71.75 C-87.75 62.51 -87.75 53.27 -87.75 43.75 C-82.14 43.75 -76.53 43.75 -70.75 43.75 C-70.811875 41.501875 -70.87375 39.25375 -70.9375 36.9375 C-71.05678669 24.31504829 -67.42632177 13.00639186 -58.79296875 3.63671875 C-43.55558517 -10.43528177 -16.78100243 -12.29441498 0 0 Z " fill="#29D114" transform="translate(847.75,116.25)"/>
<path d="M0 0 C5.65136169 4.09518963 9.6773837 8.1692409 11.7890625 14.91796875 C12.04381348 15.72000732 12.29856445 16.5220459 12.56103516 17.34838867 C12.84019775 18.25874878 12.84019775 18.25874878 13.125 19.1875 C9.71289799 21.17461598 6.29458064 23.15078601 2.875 25.125 C1.90691406 25.68896484 0.93882812 26.25292969 -0.05859375 26.83398438 C-1.46044922 27.64125977 -1.46044922 27.64125977 -2.890625 28.46484375 C-3.74946289 28.96234131 -4.60830078 29.45983887 -5.49316406 29.97241211 C-7.65133041 31.0733955 -9.50883748 31.72528404 -11.875 32.1875 C-12.25011719 31.64480469 -12.62523437 31.10210937 -13.01171875 30.54296875 C-13.52347656 29.82753906 -14.03523437 29.11210937 -14.5625 28.375 C-15.06136719 27.66730469 -15.56023438 26.95960938 -16.07421875 26.23046875 C-18.97920892 22.93478576 -21.48284871 21.33937105 -25.8828125 20.859375 C-27.42582031 20.89804688 -27.42582031 20.89804688 -29 20.9375 C-30.55074219 20.96070313 -30.55074219 20.96070313 -32.1328125 20.984375 C-34.96584046 21.08151186 -34.96584046 21.08151186 -37.875 22.1875 C-38.37669415 25.01823436 -38.37669415 25.01823436 -37.875 28.1875 C-31.64100519 33.6685434 -22.92085446 35.22275516 -15.14648438 37.56835938 C-4.28830475 41.00203915 5.04351312 45.15683382 11.1015625 55.171875 C14.82867677 62.51229853 14.35094749 72.94347567 12.1015625 80.73046875 C7.20781548 91.39667427 -0.48590858 96.01090528 -11.078125 100.2421875 C-24.54082131 104.79242843 -44.03809724 104.43995695 -56.875 98.1875 C-66.1162709 93.38447104 -73.95280895 87.1083362 -77.875 77.1875 C-77.875 76.1975 -77.875 75.2075 -77.875 74.1875 C-75.90307617 72.65356445 -75.90307617 72.65356445 -73.16796875 71.05078125 C-71.6994043 70.18549805 -71.6994043 70.18549805 -70.20117188 69.30273438 C-69.16541016 68.70783203 -68.12964844 68.11292969 -67.0625 67.5 C-65.52625977 66.59024414 -65.52625977 66.59024414 -63.95898438 65.66210938 C-56.28319214 61.1875 -56.28319214 61.1875 -52.875 61.1875 C-51.8046875 62.76171875 -51.8046875 62.76171875 -50.75 64.875 C-47.75837547 69.84339118 -44.45039857 72.49029475 -38.875 74.1875 C-33.13941364 74.72423605 -27.3845847 75.02402823 -21.875 73.1875 C-21.73543273 69.81403665 -21.73543273 69.81403665 -22.875 66.1875 C-30.38475693 61.66181215 -38.92571107 59.37537938 -47.23242188 56.71875 C-55.66607455 53.91243858 -64.1522948 50.60632356 -69.375 43 C-69.8390625 42.34644531 -70.303125 41.69289062 -70.78125 41.01953125 C-74.40420259 34.95108567 -73.64190594 26.05236206 -72.875 19.1875 C-71.73636221 15.39834022 -70.13979451 12.41483218 -67.875 9.1875 C-67.153125 8.115 -66.43125 7.0425 -65.6875 5.9375 C-61.80338578 2.13969943 -57.71028197 -0.37085407 -52.875 -2.8125 C-52.05902344 -3.23015625 -51.24304688 -3.6478125 -50.40234375 -4.078125 C-34.90013983 -10.56211015 -14.12869193 -8.65353381 0 0 Z " fill="#29D014" transform="translate(745.875,164.8125)"/>
</svg>
