<svg width="240" height="80" viewBox="0 0 60 20" xmlns="http://www.w3.org/2000/svg">
  <g id="layer1">
    <g id="text1" aria-label="{HTTPsf}">
      <path fill="#000000" d="m 7.1189082,7.9431356 q 0,0.8884684 -0.30427,1.399642 -0.3042701,0.4990028 -0.9493225,0.6572234 0.6450524,0.15822 0.9493225,0.669394 0.30427,0.499003 0.30427,1.387471 v 0.76676 q 0,0.718078 0.2312452,0.998006 0.2312452,0.279928 0.7789312,0.279928 h 0.3286116 v 1.533521 H 7.8734978 q -0.8397852,0 -1.3753005,-0.206903 Q 5.9626821,15.233445 5.6827537,14.7101 5.4028253,14.186756 5.4028253,13.249604 v -0.961493 q 0,-0.547686 -0.1338788,-0.839785 Q 5.1350677,11.156227 4.8429685,11.034519 4.5508693,10.912811 4.0275249,10.876298 V 9.1237032 Q 4.5630401,9.0871908 4.8551393,8.9654828 5.1472385,8.831604 5.2689465,8.5395048 5.4028253,8.2474056 5.4028253,7.7118904 V 6.7503971 q 0,-0.9371516 0.2799284,-1.460496 Q 5.9626821,4.7665567 6.4981973,4.5718239 7.0337126,4.3649203 7.8734978,4.3649203 H 8.4576962 V 5.8984411 H 8.1290846 q -0.547686,0 -0.7789312,0.2799284 -0.2312452,0.2799284 -0.2312452,0.9980056 z m 4.2719458,0.9371516 h 4.016364 V 5.3750967 h 1.776936 V 14.284122 H 15.407218 V 10.45032 h -4.016364 v 3.833802 H 9.6260875 V 5.3750967 H 11.390854 Z M 18.218668,5.3750967 H 25.39944 V 6.9451299 H 22.697522 V 14.284122 H 20.920585 V 6.9451299 h -2.701917 z m 7.704109,0 h 7.180772 V 6.9451299 H 30.401631 V 14.284122 H 28.624695 V 6.9451299 h -2.701918 z m 11.294507,0 q 1.058859,0 1.849961,0.365124 0.791102,0.365124 1.217081,1.034518 0.438148,0.6572232 0.438148,1.5456917 0,0.8762976 -0.438148,1.5456916 -0.425979,0.657223 -1.217081,1.022347 -0.791102,0.352953 -1.849961,0.352953 h -1.302276 v 3.0427 H 34.150242 V 5.3750967 Z M 37.022551,9.744414 q 0.827614,0 1.326617,-0.3529532 0.499003,-0.365124 0.499003,-1.0710304 0,-0.7059064 -0.499003,-1.0710305 Q 37.850165,6.8721051 37.022551,6.8721051 H 35.915008 V 9.744414 Z" id="path2" />
      <path fill="#008000" d="m 46.43057,12.409819 q 0,0.937152 -0.730248,1.484838 -0.718077,0.535515 -1.874303,0.535515 -0.998006,0 -1.728254,-0.425978 -0.718077,-0.425978 -0.973664,-1.180568 l 1.229251,-0.718077 q 0.182562,0.45032 0.572028,0.705907 0.389465,0.243416 0.91281,0.243416 0.389465,0 0.620711,-0.14605 0.231245,-0.14605 0.231245,-0.413807 0,-0.30427 -0.30427,-0.462491 -0.30427,-0.170391 -0.949323,-0.352953 -0.645052,-0.194733 -1.058859,-0.377295 -0.401637,-0.182562 -0.705907,-0.523344 -0.292099,-0.352953 -0.292099,-0.91281 0,-0.6328816 0.340783,-1.095372 0.352953,-0.4624904 0.937151,-0.7059064 0.584199,-0.243416 1.277934,-0.243416 0.949323,0 1.606546,0.4138072 0.657223,0.4016364 0.827614,1.0710304 l -1.22925,0.6937358 q -0.365124,-0.7911022 -1.229251,-0.7911022 -0.365124,0 -0.584199,0.1460496 -0.219074,0.1338788 -0.219074,0.3894656 0,0.292099 0.292099,0.45032 0.292099,0.146049 0.91281,0.31644 0.657223,0.182562 1.083201,0.365124 0.425978,0.182562 0.730248,0.559857 0.30427,0.365124 0.30427,0.973664 z m 4.028539,-6.0732291 q -0.45032,0 -0.681565,0.3286116 -0.231245,0.3286116 -0.231245,1.0710305 v 0.243416 h 1.643058 V 9.3914608 H 49.546299 V 14.284122 H 47.854558 V 9.3914608 H 46.771356 V 7.979648 h 1.083202 v -0.30427 q 0,-1.4239837 0.681564,-2.1177193 0.681565,-0.6937356 1.776937,-0.6937356 0.535515,0 0.949323,0.1582204 0.413807,0.1582204 0.657223,0.4138072 l -0.645053,1.21708 Q 50.897258,6.3365899 50.459109,6.3365899 Z" id="path3" />
      <path fill="#000000" d="m 52.893264,7.1763751 q 0,-0.7180772 -0.231246,-0.9980056 Q 52.430773,5.8984411 51.883087,5.8984411 H 51.554476 V 4.3649203 h 0.584198 q 0.839785,0 1.3753,0.2069036 0.535516,0.1947328 0.815444,0.7180772 0.279928,0.5233444 0.279928,1.460496 v 0.9614933 q 0,0.5355152 0.121708,0.8276144 0.133879,0.2920992 0.413808,0.425978 0.292099,0.121708 0.827614,0.1582204 v 1.7525948 q -0.523344,0.03651 -0.815444,0.158221 -0.279928,0.121708 -0.413807,0.425978 -0.133879,0.292099 -0.133879,0.827614 v 0.961493 q 0,0.937152 -0.279928,1.460496 -0.279928,0.523345 -0.815444,0.718078 -0.535515,0.206903 -1.3753,0.206903 H 51.554476 V 14.10156 h 0.328611 q 0.547686,0 0.778931,-0.279928 0.231246,-0.279928 0.231246,-0.998006 v -0.76676 q 0,-0.888468 0.30427,-1.387471 0.30427,-0.511174 0.949322,-0.669394 -0.645052,-0.1582206 -0.949322,-0.6572234 -0.30427,-0.5111736 -0.30427,-1.399642 z" id="path4" />
    </g>
  </g>
</svg>
